# xmcd
#
# Track frame offsets:
# 150
# 20533
# 34120
# 56347
# 77747
# 96468
# 107644
# 130631
# 147819
# 164470
# 179878
# 195964
# 213221
# 231841
# 250845
# 268314
# 287975
#
# Disc length: 4127 seconds
#
# Revision: 0
# Processed by: cddbd v1.4PL0 Copyright (c) Steve Scherf et al.
# Submitted via: Audion 3.0.2 (http://www.panic.com/audion/)
#
DISCID=f5101d11
DTITLE=Brothers Johnson - Classic
DYEAR=1900
DGENRE=
TTITLE0=Land Of Ladies
TTITLE1=Tomorrow
TTITLE2=Blam!
TTITLE3=I´ll Be Good To You
TTITLE4=Free And Single
TTITLE5=Get The Funk Out Ma Face
TTITLE6=Running´ For Your Lovin´
TTITLE7=Strawberry Letter 23
TTITLE8=Right On Time
TTITLE9=Q
TTITLE10=Ain´t We Funkin´ Now
TTITLE11=Light Up The Night
TTITLE12=Stomp
TTITLE13=Treasure
TTITLE14=The Real Thing
TTITLE15=You Keep Me Comin´ Back
TTITLE16=I´m Giving You All Of My Love
EXTD=
EXTT0=
EXTT1=
EXTT2=
EXTT3=
EXTT4=
EXTT5=
EXTT6=
EXTT7=
EXTT8=
EXTT9=
EXTT10=
EXTT11=
EXTT12=
EXTT13=
EXTT14=
EXTT15=
EXTT16=
PLAYORDER=
